<svg xmlns="http://www.w3.org/2000/svg" viewBox="0 0 64 64" width="64" height="64">
  <!-- 背景 -->
  <rect x="0" y="0" width="64" height="64" rx="12" fill="#007aff" />
  
  <!-- 像素图标 - 一个简单的相机/图像转换图标 -->
  <!-- 相机外壳 -->
  <rect x="12" y="18" width="40" height="28" rx="2" fill="#ffffff" />
  
  <!-- 相机镜头 -->
  <rect x="26" y="24" width="12" height="12" rx="1" fill="#007aff" />
  <rect x="28" y="26" width="8" height="8" rx="1" fill="#ffffff" />
  
  <!-- 闪光灯 -->
  <rect x="44" y="22" width="4" height="4" rx="1" fill="#007aff" />
  
  <!-- 像素效果 - 格子图案 -->
  <rect x="18" y="40" width="4" height="4" fill="#007aff" />
  <rect x="22" y="40" width="4" height="4" fill="#ffffff" />
  <rect x="26" y="40" width="4" height="4" fill="#007aff" />
  <rect x="30" y="40" width="4" height="4" fill="#ffffff" />
  <rect x="34" y="40" width="4" height="4" fill="#007aff" />
  <rect x="38" y="40" width="4" height="4" fill="#ffffff" />
  <rect x="42" y="40" width="4" height="4" fill="#007aff" />
  
  <rect x="18" y="44" width="4" height="4" fill="#ffffff" />
  <rect x="22" y="44" width="4" height="4" fill="#007aff" />
  <rect x="26" y="44" width="4" height="4" fill="#ffffff" />
  <rect x="30" y="44" width="4" height="4" fill="#007aff" />
  <rect x="34" y="44" width="4" height="4" fill="#ffffff" />
  <rect x="38" y="44" width="4" height="4" fill="#007aff" />
  <rect x="42" y="44" width="4" height="4" fill="#ffffff" />
</svg> 